<svg width="379" height="627" viewBox="0 0 379 627" fill="none" xmlns="http://www.w3.org/2000/svg">
<path d="M110.562 319.072C90.6828 364.272 94.9131 395.263 86.4842 421.741C74.0157 460.934 38.8049 455.816 38.8049 455.816C38.8049 455.816 44.0531 421.455 45.3891 376.319C45.898 358.868 56.4898 343.261 72.4253 336.141L110.562 319.072Z" fill="#FC9F86"/>
<path d="M70.8988 376.923C82.6993 349.459 82.4767 316.306 104.487 271.869C106.332 268.086 108.336 264.24 110.563 260.298L97.1717 264.78L64.3147 275.778C61.7383 276.637 59.2891 277.686 56.9036 278.925V397.965C62.0882 392.879 66.9547 386.077 70.8988 376.923Z" fill="#FC9F86"/>
<path d="M56.8714 278.925V397.965C36.9282 417.323 11.6414 411.093 11.6414 411.093C11.6414 411.093 12.3411 407.342 13.4862 401.335C15.5537 390.4 19.0207 371.996 22.106 355.276C25.0959 339.002 27.7041 324.253 28.3084 319.485C30.5349 301.907 41.4131 286.872 56.8714 278.925Z" fill="#FFC6A7"/>
<path d="M86.2616 202.002C102.674 194.978 141.606 175.397 143.706 174.253C136.772 169.866 65.7776 118.023 56.8716 110.648V175.937C62.5333 181.405 82.5401 198.601 86.2616 202.002Z" fill="#FC9F86"/>
<path d="M44.0851 99.9999C44.0851 99.9999 17.844 129.593 46.6933 165.035C49.8105 168.849 53.2138 172.441 56.8717 175.969V110.648C49.5878 104.609 44.0851 99.9999 44.0851 99.9999Z" fill="#FFC6A7"/>
<path d="M56.1082 214.208C37.819 221.201 0 233.439 0 233.439C0 233.439 11.1326 271.36 56.4899 265.766C56.6171 265.734 56.7444 265.734 56.8716 265.702V213.922C56.6171 214.018 56.3627 214.113 56.1082 214.208Z" fill="#FFC6A7"/>
<path d="M116.097 233.948C105.95 220.82 95.8674 210.712 86.2616 202.002C86.0389 202.098 85.7845 202.225 85.5618 202.32C75.4789 206.643 65.8413 210.489 56.8716 213.922V265.734C76.2741 263.255 95.1677 254.895 120.455 248.887C122.268 248.474 124.112 248.061 125.989 247.648C122.713 242.721 119.437 238.175 116.129 233.948H116.097Z" fill="#FC9F86"/>
<path d="M377.426 602.193C376.949 605.912 375.931 609.503 374.468 613C374.468 613 363.94 619 294 625C224.06 631 205.826 613 205.826 613C205.476 612.046 205.126 611.093 204.776 610.139V610.107C204.649 609.79 204.553 609.472 204.426 609.186C202.645 604.354 200.959 599.3 199.178 594.278C199.019 593.896 198.892 593.451 198.764 593.07C197.842 590.432 196.951 587.793 195.997 585.155C195.933 584.996 195.87 584.837 195.806 584.678C194.279 580.451 192.689 576.287 191.003 572.25C190.622 571.328 190.24 570.374 189.826 569.453C189.763 569.325 189.699 569.198 189.667 569.071C183.211 554.418 175.354 542.085 163.84 536.554C130.156 520.438 111.453 491.417 102.992 474.793C99.1436 467.196 97.426 462.205 97.426 462.205C97.426 462.205 100.225 461.888 105.187 461.411C134.545 458.55 240.305 449.205 300.262 457.437C305.637 458.137 310.631 459.027 315.147 460.044C332.196 463.922 342.82 470.025 342.47 479.211C341.929 494.151 346.573 507.183 352.744 519.898C352.744 519.929 352.776 519.961 352.776 519.993C353.189 520.851 353.634 521.741 354.048 522.6C355.67 525.873 357.388 529.116 359.105 532.39C359.137 532.453 359.169 532.517 359.201 532.549C360.759 535.568 362.381 538.62 363.94 541.735C364.131 542.116 364.322 542.466 364.481 542.847C366.421 546.694 368.298 550.635 369.983 554.672C370.174 555.117 370.397 555.594 370.588 556.071C376.154 569.675 379.653 584.519 377.426 602.193Z" fill="#FFC6A7"/>
<path d="M300.293 457.501C296.413 460.839 291.356 462.873 285.885 462.873H112.884C110.181 462.873 107.604 462.396 105.219 461.506C100.225 461.983 97.4578 462.269 97.4578 462.269C97.4578 462.269 99.1436 467.291 103.024 474.856C105.537 475.492 108.145 475.81 110.849 475.81H287.952C299.594 475.81 309.74 469.516 315.211 460.108C310.663 459.09 305.669 458.2 300.293 457.501Z" fill="#FC9F86"/>
<path d="M31.3303 380.515L29.1992 396.789C28.7857 399.777 26.1775 401.939 23.1876 401.78L13.4863 401.303C15.5538 390.368 19.0208 371.964 22.1061 355.244C28.8811 361.443 32.6026 370.724 31.3303 380.515Z" fill="#FFE1D5"/>
<path d="M140.5 215H149.5C149.69 215 149.873 215.072 150.012 215.202C150.151 215.332 150.235 215.509 150.248 215.699C150.261 215.888 150.201 216.076 150.082 216.223C149.962 216.371 149.79 216.467 149.602 216.493L149.5 216.5H140.5C140.31 216.5 140.127 216.428 139.988 216.298C139.849 216.168 139.765 215.991 139.752 215.801C139.739 215.612 139.799 215.424 139.918 215.277C140.038 215.129 140.21 215.033 140.398 215.007L140.5 215H149.5H140.5ZM144.898 203.007L145 203C145.181 203 145.356 203.066 145.493 203.185C145.63 203.304 145.718 203.468 145.743 203.648L145.75 203.75V211.438L148.005 209.184C148.132 209.057 148.301 208.98 148.48 208.966C148.659 208.953 148.838 209.005 148.982 209.112L149.066 209.184C149.193 209.311 149.27 209.48 149.284 209.659C149.297 209.838 149.245 210.017 149.138 210.161L149.066 210.245L145.53 213.78C145.403 213.907 145.235 213.984 145.056 213.998C144.876 214.011 144.698 213.96 144.554 213.853L144.47 213.78L140.934 210.245C140.8 210.111 140.721 209.932 140.714 209.742C140.707 209.553 140.772 209.368 140.896 209.224C141.019 209.081 141.193 208.989 141.381 208.968C141.57 208.948 141.759 208.999 141.911 209.112L141.995 209.184L144.25 211.44V203.75C144.25 203.569 144.316 203.394 144.435 203.257C144.554 203.12 144.718 203.032 144.898 203.007L145 203L144.898 203.007Z" fill="black"/>
<path d="M280.859 9.63129H101.656C89.4741 9.63129 79.6138 19.5168 79.6138 31.691V293.007V299.427V452.383C85.021 456.865 91.9868 459.535 99.5888 459.535H282.926C290.497 459.535 297.462 456.865 302.902 452.383L296.381 299.427V293.007L302.902 31.691C302.902 19.5168 293.041 9.63129 280.859 9.63129Z" fill="#FAFAFF"/>
<path d="M246.316 189.161C244.281 189.161 242.277 189.351 240.337 189.733C238.396 165.734 218.326 146.853 193.834 146.853C172.778 146.853 154.997 160.775 149.177 179.911C146.759 179.402 144.215 179.148 141.638 179.148C121.059 179.148 104.392 195.804 104.392 216.37C104.392 236.586 120.518 253.019 140.589 253.56C140.907 253.592 141.225 253.592 141.511 253.592H246.094C246.126 253.592 246.157 253.592 246.189 253.592C246.221 253.592 246.253 253.592 246.285 253.592C264.097 253.592 278.505 239.161 278.505 221.392C278.537 203.592 264.097 189.161 246.316 189.161Z" fill="#615ED1"/>
<path d="M180.602 118.086H100.416C98.412 118.086 96.7581 116.465 96.7581 114.431C96.7581 112.428 98.3802 110.776 100.416 110.776H180.602C182.606 110.776 184.26 112.397 184.26 114.431C184.26 116.465 182.638 118.086 180.602 118.086Z" fill="#615ED1"/>
<path d="M282.481 118.086H198.065C196.061 118.086 194.407 116.465 194.407 114.431C194.407 112.428 196.029 110.776 198.065 110.776H282.513C284.517 110.776 286.171 112.397 286.171 114.431C286.139 116.465 284.517 118.086 282.481 118.086Z" fill="#FC888B"/>
<path d="M282.481 101.812H100.416C98.412 101.812 96.7581 100.191 96.7581 98.1563C96.7581 96.1537 98.3802 94.5009 100.416 94.5009H282.513C284.517 94.5009 286.171 96.122 286.171 98.1563C286.139 100.159 284.517 101.812 282.481 101.812Z" fill="#7474F7"/>
<path d="M282.481 85.5053H160.755C158.751 85.5053 157.097 83.8842 157.097 81.8499C157.097 79.8473 158.719 78.1945 160.755 78.1945H282.481C284.485 78.1945 286.139 79.8156 286.139 81.8499C286.139 83.8524 284.517 85.5053 282.481 85.5053Z" fill="#615ED1"/>
<path d="M144.469 85.5053H100.416C98.412 85.5053 96.7581 83.8842 96.7581 81.8499C96.7581 79.8473 98.3802 78.1945 100.416 78.1945H144.501C146.505 78.1945 148.159 79.8156 148.159 81.8499C148.127 83.8524 146.505 85.5053 144.469 85.5053Z" fill="#FC888B"/>
<path d="M302.901 46.3445H79.4546V27.368C79.4546 16.7196 88.1062 8.07373 98.7617 8.07373H283.562C294.218 8.07373 302.87 16.7196 302.87 27.368V46.3445H302.901Z" fill="#615ED1"/>
<path d="M282.927 0H99.5888C82.222 0 68.1313 14.1131 68.1313 31.5003V431.373C68.1313 441.195 72.6162 449.936 79.6138 455.721C85.0211 460.203 91.9869 462.873 99.5888 462.873H282.927C290.497 462.873 297.462 460.203 302.902 455.721C309.931 449.968 314.416 441.195 314.416 431.373V31.5003C314.416 14.1131 300.325 0 282.927 0ZM302.902 427.876C302.902 440.082 293.041 449.968 280.859 449.968H101.656C94.8495 449.968 88.7425 446.884 84.703 441.989C81.5222 438.175 79.6138 433.248 79.6138 427.876V35.0286C79.6138 22.8226 89.4741 12.9688 101.656 12.9688H280.859C293.041 12.9688 302.902 22.8544 302.902 35.0286V427.876Z" fill="#2E2044"/>
<path d="M194.47 299.65C196.859 299.65 198.796 297.7 198.796 295.295C198.796 292.89 196.859 290.941 194.47 290.941C192.081 290.941 190.145 292.89 190.145 295.295C190.145 297.7 192.081 299.65 194.47 299.65Z" fill="#615ED1"/>
<path d="M161.995 299.65C164.384 299.65 166.321 297.7 166.321 295.295C166.321 292.89 164.384 290.941 161.995 290.941C159.606 290.941 157.669 292.89 157.669 295.295C157.669 297.7 159.606 299.65 161.995 299.65Z" fill="#FC888B"/>
<path d="M178.249 299.65C180.638 299.65 182.574 297.7 182.574 295.295C182.574 292.89 180.638 290.941 178.249 290.941C175.86 290.941 173.923 292.89 173.923 295.295C173.923 297.7 175.86 299.65 178.249 299.65Z" fill="#615ED1"/>
<path d="M210.724 299.65C213.113 299.65 215.05 297.7 215.05 295.295C215.05 292.89 213.113 290.941 210.724 290.941C208.335 290.941 206.398 292.89 206.398 295.295C206.398 297.7 208.335 299.65 210.724 299.65Z" fill="#615ED1"/>
<path d="M175.863 354.164H150.449C147.3 354.164 144.755 351.621 144.755 348.474V323.077C144.755 319.93 147.3 317.387 150.449 317.387H175.863C179.012 317.387 181.557 319.93 181.557 323.077V348.474C181.557 351.621 179.012 354.164 175.863 354.164Z" fill="#7474F7"/>
<path d="M268.709 354.164H243.295C240.146 354.164 237.601 351.621 237.601 348.474V323.077C237.601 319.93 240.146 317.387 243.295 317.387H268.709C271.858 317.387 274.402 319.93 274.402 323.077V348.474C274.402 351.621 271.858 354.164 268.709 354.164Z" fill="#7474F7"/>
<path d="M222.27 354.164H196.856C193.707 354.164 191.162 351.621 191.162 348.474V323.077C191.162 319.93 193.707 317.387 196.856 317.387H222.27C225.419 317.387 227.964 319.93 227.964 323.077V348.474C227.995 351.621 225.419 354.164 222.27 354.164Z" fill="#FC888B"/>
<path d="M129.424 354.164H104.01C100.861 354.164 98.3167 351.621 98.3167 348.474V323.077C98.3167 319.93 100.861 317.387 104.01 317.387H129.424C132.573 317.387 135.118 319.93 135.118 323.077V348.474C135.118 351.621 132.573 354.164 129.424 354.164Z" fill="#E16C74"/>
<path d="M175.863 412.047H150.449C147.3 412.047 144.755 409.504 144.755 406.357V380.96C144.755 377.813 147.3 375.27 150.449 375.27H175.863C179.012 375.27 181.557 377.813 181.557 380.96V406.357C181.557 409.472 179.012 412.047 175.863 412.047Z" fill="#FC888B"/>
<path d="M268.709 412.047H243.295C240.146 412.047 237.601 409.504 237.601 406.357V380.96C237.601 377.813 240.146 375.27 243.295 375.27H268.709C271.858 375.27 274.402 377.813 274.402 380.96V406.357C274.402 409.472 271.858 412.047 268.709 412.047Z" fill="#FC888B"/>
<path d="M222.27 412.047H196.856C193.707 412.047 191.162 409.504 191.162 406.357V380.96C191.162 377.813 193.707 375.27 196.856 375.27H222.27C225.419 375.27 227.964 377.813 227.964 380.96V406.357C227.995 409.472 225.419 412.047 222.27 412.047Z" fill="#E16C74"/>
<path d="M129.424 412.047H104.01C100.861 412.047 98.3167 409.504 98.3167 406.357V380.96C98.3167 377.813 100.861 375.27 104.01 375.27H129.424C132.573 375.27 135.118 377.813 135.118 380.96V406.357C135.118 409.472 132.573 412.047 129.424 412.047Z" fill="#7474F7"/>
<path d="M99.1753 27.6227C96.4717 27.6227 93.9589 28.5763 92.0187 30.1974C91.5416 30.5788 90.8736 30.5788 90.4283 30.1338L90.3965 30.102C89.9194 29.6252 89.9512 28.7988 90.4919 28.3856C92.8457 26.4466 95.8674 25.2705 99.1753 25.2705C102.483 25.2705 105.505 26.4466 107.859 28.3856C108.4 28.8306 108.431 29.6252 107.954 30.102L107.922 30.1338C107.477 30.5788 106.809 30.5788 106.332 30.1974C104.392 28.6081 101.879 27.6227 99.1753 27.6227Z" fill="#2E2044"/>
<path d="M99.1752 32.3586C97.7439 32.3586 96.3761 32.8354 95.2947 33.63C94.8176 33.9797 94.1814 33.9161 93.7679 33.5029C93.259 32.9943 93.3226 32.1361 93.8952 31.7229C95.3583 30.6421 97.2031 29.9746 99.1752 29.9746C101.147 29.9746 102.96 30.6103 104.455 31.7229C105.028 32.1361 105.091 32.9943 104.582 33.5029C104.169 33.9161 103.533 33.9797 103.056 33.63C101.942 32.8354 100.607 32.3586 99.1752 32.3586Z" fill="#2E2044"/>
<path d="M99.1753 37.0629C98.9526 37.0629 98.73 37.0947 98.5073 37.19C98.062 37.349 97.5531 37.2854 97.2032 36.9357C96.5989 36.3318 96.8215 35.3146 97.6167 34.9968C98.0938 34.8061 98.6027 34.7107 99.1435 34.7107C99.6842 34.7107 100.193 34.8061 100.67 34.9968C101.465 35.3146 101.688 36.3318 101.084 36.9357C100.734 37.2854 100.225 37.349 99.7796 37.19C99.6206 37.1265 99.3979 37.0629 99.1753 37.0629Z" fill="#2E2044"/>
<path d="M121.918 31.2142H119.15V37.2854H121.918V31.2142Z" fill="#2E2044"/>
<path d="M117.051 34.2656H114.284V37.2853H117.051V34.2656Z" fill="#2E2044"/>
<path d="M126.784 28.0674H124.017V37.2854H126.784V28.0674Z" fill="#2E2044"/>
<path d="M131.651 25.1748H128.884V37.2854H131.651V25.1748Z" fill="#2E2044"/>
<path d="M223.828 25.7152C222.747 25.7152 221.825 26.2874 221.061 27.3999C220.584 28.5124 220.33 29.7839 220.33 31.1507V31.246C220.33 32.5493 220.552 33.7572 220.966 34.8379C221.634 36.1093 222.588 36.7451 223.797 36.7451H223.892C225.005 36.7451 225.928 36.1729 226.627 35.0604C227.105 33.8843 227.359 32.7082 227.359 31.5639V30.9282C227.359 30.0064 227.168 28.9574 226.818 27.8131C226.119 26.4145 225.133 25.7152 223.828 25.7152ZM222.429 34.52C221.984 33.6936 221.761 32.6128 221.761 31.3732V31.0553C221.761 30.2289 221.888 29.3389 222.174 28.4488C222.556 27.5906 223.097 27.1456 223.892 27.1456C224.528 27.1456 225.037 27.4635 225.451 28.131C225.8 29.0846 225.991 30.1017 225.991 31.1507C225.959 31.7546 225.928 32.1996 225.896 32.4857C225.705 34.3293 225.037 35.2193 223.892 35.2193H223.797C223.288 35.2511 222.811 34.9968 222.429 34.52Z" fill="#2E2044"/>
<path d="M231.017 25.7471C230.508 25.7471 229.967 25.8742 229.458 26.1285C228.25 26.8596 227.645 27.845 227.645 29.0846C227.645 29.5932 227.772 30.1018 228.027 30.674C228.695 31.7865 229.649 32.3904 230.826 32.4858L229.299 34.5519C228.472 35.5373 228.377 35.8551 228.377 36.0141C228.377 36.2366 228.472 36.6498 229.14 36.7769C229.299 36.7769 229.458 36.7134 229.617 36.5862L233.371 31.5958C234.039 30.8011 234.388 29.9747 234.388 29.1482C234.388 28.6396 234.229 28.0675 233.911 27.4635C233.18 26.2874 232.194 25.7471 231.017 25.7471ZM232.862 29.1164C232.862 29.4025 232.798 29.6886 232.671 29.9429C232.289 30.6422 231.748 30.96 231.017 30.96C230.731 30.96 230.476 30.8965 230.253 30.8329C229.49 30.4197 229.14 29.9111 229.14 29.2436V28.9893C229.14 28.8621 229.172 28.6714 229.236 28.4807C229.649 27.6543 230.158 27.2728 230.89 27.2728H231.049C231.24 27.2728 231.43 27.3046 231.526 27.3364C232.448 27.6543 232.862 28.2264 232.862 29.1164Z" fill="#2E2044"/>
<path d="M237.219 34.234H237.092C236.742 34.234 236.265 34.4247 236.074 35.3147C236.074 35.7598 236.265 36.3001 237.188 36.459H237.219H237.251C238.11 36.2365 238.301 35.7598 238.301 35.4101V35.2194C238.11 34.3929 237.601 34.234 237.219 34.234Z" fill="#2E2044"/>
<path d="M237.188 29.307C236.774 29.307 236.265 29.4977 236.074 30.4195C236.074 30.8645 236.265 31.4049 237.188 31.5321H237.378H237.41C238.142 31.2778 238.301 30.8328 238.301 30.5149V30.2924V30.2288C238.046 29.4659 237.537 29.307 237.188 29.307Z" fill="#2E2044"/>
<path d="M242.436 25.7152C241.354 25.7152 240.432 26.2874 239.669 27.3999C239.191 28.5124 238.937 29.7839 238.937 31.1507V31.246C238.937 32.5493 239.16 33.7572 239.573 34.8379C240.241 36.1093 241.195 36.7451 242.404 36.7451H242.499C243.613 36.7451 244.535 36.1729 245.235 35.0604C245.712 33.8843 245.966 32.7082 245.966 31.5639V30.9282C245.966 30.0064 245.776 28.9574 245.426 27.8131C244.726 26.4145 243.708 25.7152 242.436 25.7152ZM244.567 31.1825C244.535 31.7864 244.503 32.2314 244.471 32.5175C244.281 34.3611 243.613 35.2511 242.468 35.2511H242.372C241.863 35.2511 241.418 34.9968 241.004 34.52C240.559 33.6936 240.337 32.6128 240.337 31.3732V31.0553C240.337 30.2289 240.464 29.3389 240.75 28.4488C241.132 27.5906 241.672 27.1456 242.468 27.1456C243.104 27.1456 243.613 27.4635 244.026 28.131C244.376 29.1481 244.567 30.1653 244.567 31.1825Z" fill="#2E2044"/>
<path d="M252.709 27.7813C252.041 26.4145 251.024 25.7152 249.751 25.7152C248.67 25.7152 247.747 26.2874 246.984 27.3999C246.507 28.5124 246.252 29.7839 246.252 31.1507V31.246C246.252 32.5493 246.475 33.7572 246.889 34.8379C247.557 36.1093 248.511 36.7451 249.719 36.7451H249.815C250.928 36.7451 251.851 36.1729 252.55 35.0604C253.027 33.8843 253.282 32.7082 253.282 31.5639V30.9282C253.25 29.9428 253.059 28.9256 252.709 27.7813ZM248.32 34.52C247.875 33.6936 247.652 32.6128 247.652 31.3732V31.0553C247.652 30.2289 247.779 29.3389 248.065 28.4488C248.447 27.5906 248.988 27.1456 249.783 27.1456C250.419 27.1456 250.928 27.4635 251.342 28.131C251.692 29.0846 251.882 30.1017 251.882 31.1507C251.851 31.7546 251.819 32.1996 251.787 32.4857C251.596 34.3293 250.928 35.2193 249.783 35.2193H249.688C249.179 35.2511 248.702 34.9968 248.32 34.52Z" fill="#2E2044"/>
<path d="M288.143 26.4144H270.267C268.645 26.4144 267.341 27.7177 267.341 29.3388V33.0896C267.341 34.7107 268.645 36.0139 270.267 36.0139H288.143C289.765 36.0139 291.069 34.7107 291.069 33.0896V29.3388C291.069 27.7177 289.765 26.4144 288.143 26.4144ZM287.857 34.1067H275.579V28.3534H287.857C288.525 28.3534 289.097 28.8938 289.097 29.5931V32.8671C289.097 33.5664 288.556 34.1067 287.857 34.1067Z" fill="#2E2044"/>
<path d="M283.722 218.785C283.531 230.864 285.567 242.879 286.394 254.927C287.412 269.993 286.648 285.219 282.799 299.904C278.824 315.066 271.381 329.307 261.552 341.894C256.59 348.219 250.865 353.941 245.553 360.012C239.891 366.497 234.58 373.235 229.681 380.228C229.268 380.8 228.854 381.404 228.473 381.977C227.964 382.708 227.486 383.439 227.009 384.138C226.691 384.583 226.373 385.06 226.087 385.505C217.976 397.838 200.196 437.889 196.156 449.777C196.156 449.777 196.252 449.809 196.347 449.872H201.404C201.563 449.872 204.363 449.904 208.752 449.904H269.059C272.78 449.872 275.516 449.84 276.692 449.777C287.761 448.601 296.381 439.224 296.381 427.844V384.138H297.622C297.622 384.138 298.003 184.488 298.003 179.784C288.016 190.432 283.945 204.895 283.722 218.785Z" fill="#BEDCFF"/>
<path d="M343.393 492.72C343.393 492.72 263.047 531.659 238.969 517.736C213.141 502.86 209.452 454.1 233.053 407.215C240.019 393.388 248.448 379.942 257.481 367.864C271.985 348.633 288.525 327.463 291.515 303.592C296.954 259.695 281.718 231.436 284.199 203.274C288.525 153.56 331.592 150.286 331.592 150.286C331.592 150.286 347.877 277.781 366.548 330.96C375.073 355.244 354.939 416.592 344.856 459.98C342.12 471.71 342.311 480.737 343.393 492.72Z" fill="#FFC6A7"/>
<path d="M340.88 213.477C331.242 210.616 322.114 202.606 320.078 192.021L316.77 174.602C316.197 171.646 318.01 168.786 320.905 167.991L333.501 164.59C333.501 164.558 337.699 193.356 340.88 213.477Z" fill="#FFE1D5"/>
<path d="M173.562 222.375H208.437C209.173 222.375 209.882 222.655 210.42 223.158C210.958 223.66 211.285 224.349 211.335 225.083C211.386 225.818 211.155 226.544 210.69 227.115C210.226 227.686 209.562 228.06 208.832 228.16L208.437 228.188H173.562C172.826 228.187 172.117 227.908 171.579 227.405C171.041 226.902 170.713 226.214 170.663 225.479C170.613 224.745 170.844 224.018 171.308 223.447C171.773 222.876 172.437 222.502 173.167 222.402L173.562 222.375H208.437H173.562ZM190.604 175.902L190.999 175.875C191.702 175.875 192.38 176.129 192.909 176.591C193.439 177.053 193.783 177.69 193.878 178.386L193.906 178.781V208.572L202.644 199.838C203.137 199.345 203.79 199.046 204.485 198.995C205.18 198.944 205.87 199.144 206.43 199.559L206.755 199.838C207.248 200.331 207.547 200.984 207.598 201.679C207.649 202.374 207.449 203.064 207.034 203.624L206.755 203.949L193.053 217.647C192.561 218.14 191.909 218.439 191.215 218.491C190.521 218.543 189.831 218.344 189.271 217.93L188.946 217.647L175.244 203.949C174.724 203.431 174.419 202.735 174.392 202.001C174.364 201.267 174.615 200.55 175.095 199.994C175.574 199.437 176.247 199.083 176.977 199.003C177.707 198.922 178.44 199.121 179.029 199.559L179.355 199.838L188.093 208.58V178.781C188.093 178.079 188.347 177.4 188.809 176.871C189.271 176.342 189.908 175.998 190.604 175.902L190.999 175.875L190.604 175.902Z" fill="white"/>
</svg>
